Coordinates
nRows=235
nColumns=2
inDegrees=yes
endheader
time	ankle_angle_r	
4.125	 -5.386353	
4.15827	 -5.386353	
4.19153	 -5.371094	
4.2248	 -5.416870	
4.25806	 -5.385673	
4.29133	 -5.409484	
4.3246	 -5.416870	
4.35786	 -5.378574	
4.39113	 -5.386353	
4.4244	 -5.409097	
4.45766	 -5.371094	
4.49093	 -5.371768	
4.52419	 -5.408807	
4.55746	 -5.365055	
4.59073	 -5.394609	
4.62399	 -5.369647	
4.65726	 -5.379543	
4.69052	 -5.325317	
4.72379	 -5.355835	
4.75706	 -5.310059	
4.79032	 -5.342990	
4.82359	 -5.364768	
4.85685	 -5.303830	
4.89012	 -5.303926	
4.92339	 -5.328505	
4.95665	 -5.343134	
4.98992	 -5.334734	
5.02319	 -5.361580	
5.05645	 -5.304410	
5.08972	 -5.325317	
5.12298	 -5.320970	
5.15625	 -5.319959	
5.18952	 -5.259548	
5.22278	 -5.355835	
5.25605	 -5.350714	
5.28931	 -5.355835	
5.32258	 -5.411995	
5.35585	 -5.376795	
5.38911	 -5.334681	
5.42238	 -5.371094	
5.45565	 -5.380071	
5.48891	 -5.360227	
5.52218	 -5.383979	
5.55544	 -5.394750	
5.58871	 -5.359937	
5.62198	 -5.424119	
5.65524	 -5.382444	
5.68851	 -5.374906	
5.72177	 -5.432129	
5.75504	 -5.401611	
5.78831	 -5.386353	
5.82157	 -5.443963	
5.85484	 -5.362492	
5.8881	 -5.404843	
5.92137	 -5.428994	
5.95464	 -5.398573	
5.9879	 -5.419812	
6.02117	 -5.410146	
6.05444	 -5.407108	
6.0877	 -5.432129	
6.12097	 -5.432129	
6.15423	 -5.411954	
6.1875	 -5.429768	
6.22077	 -5.388618	
6.25403	 -5.375430	
6.2873	 -5.418941	
6.32056	 -5.434103	
6.35383	 -5.355835	
6.3871	 -5.388134	
6.42036	 -5.355835	
6.45363	 -5.343752	
6.4869	 -5.389335	
6.52016	 -5.386353	
6.55343	 -5.369796	
6.58669	 -5.401611	
6.61996	 -5.384143	
6.65323	 -5.341584	
6.68649	 -5.372005	
6.71976	 -5.357464	
6.75302	 -5.311494	
6.78629	 -5.355835	
6.81956	 -5.387402	
6.85282	 -5.326173	
6.88609	 -5.401942	
6.91935	 -5.371328	
6.95262	 -5.340714	
6.98589	 -5.401570	
7.01915	 -5.340576	
7.05242	 -5.355682	
7.08569	 -5.401362	
7.11895	 -5.416870	
7.15222	 -5.355392	
7.18548	 -5.401611	
7.21875	 -5.370458	
7.25202	 -5.356567	
7.28528	 -5.386353	
7.31855	 -5.388204	
7.35181	 -5.354813	
7.38508	 -5.400492	
7.41835	 -5.402827	
7.45161	 -5.341889	
7.48488	 -5.371094	
7.51815	 -5.416870	
7.55141	 -5.345384	
7.58468	 -5.372793	
7.61794	 -5.386353	
7.65121	 -5.327210	
7.68448	 -5.399622	
7.71774	 -5.401611	
7.75101	 -5.299165	
7.78427	 -5.373373	
7.81754	 -5.406363	
7.85081	 -5.343049	
7.88407	 -5.355835	
7.91734	 -5.361167	
7.9506	 -5.310059	
7.98387	 -5.371094	
8.01714	 -5.383396	
8.0504	 -5.343629	
8.08367	 -5.340576	
8.11694	 -5.371094	
8.1502	 -5.389696	
8.18347	 -5.425250	
8.21673	 -5.401611	
8.25	 -5.394345	
8.28327	 -5.405341	
8.31653	 -5.394005	
8.3498	 -5.405534	
8.38306	 -5.428109	
8.41633	 -5.375210	
8.4496	 -5.386353	
8.48286	 -5.401611	
8.51613	 -5.390759	
8.5494	 -5.390856	
8.58266	 -5.416870	
8.61593	 -5.381656	
8.64919	 -5.381559	
8.68246	 -5.406501	
8.71573	 -5.381366	
8.74899	 -5.386353	
8.78226	 -5.432129	
8.81552	 -5.366388	
8.84879	 -5.397099	
8.88206	 -5.421189	
8.91532	 -5.380786	
8.94859	 -5.395948	
8.98185	 -5.416870	
9.01512	 -5.376951	
9.04839	 -5.361788	
9.08165	 -5.383461	
9.11492	 -5.346723	
9.14819	 -5.349591	
9.18145	 -5.371094	
9.21472	 -5.347013	
9.24798	 -5.347110	
9.28125	 -5.386353	
9.31452	 -5.294800	
9.34778	 -5.300012	
9.38105	 -5.371094	
9.41431	 -5.340576	
9.44758	 -5.294800	
9.48085	 -5.340576	
9.51411	 -5.294800	
9.54738	 -5.317914	
9.58065	 -5.348334	
9.61391	 -5.332979	
9.64718	 -5.325317	
9.68044	 -5.348044	
9.71371	 -5.332689	
9.74698	 -5.332592	
9.78024	 -5.393531	
9.81351	 -5.364012	
9.84677	 -5.355835	
9.88004	 -5.423758	
9.91331	 -5.377885	
9.94657	 -5.362530	
9.97984	 -5.410272	
10.0131	 -5.386353	
10.0464	 -5.362240	
10.0796	 -5.423178	
10.1129	 -5.401611	
10.1462	 -5.377208	
10.1794	 -5.410852	
10.2127	 -5.380431	
10.246	 -5.392177	
10.2792	 -5.405414	
10.3125	 -5.365462	
10.3458	 -5.397422	
10.379	 -5.422308	
10.4123	 -5.376435	
10.4456	 -5.432129	
10.4788	 -5.432129	
10.5121	 -5.386353	
10.5454	 -5.442433	
10.5786	 -5.442530	
10.6119	 -5.380616	
10.6452	 -5.365164	
10.6784	 -5.412302	
10.7117	 -5.325317	
10.745	 -5.344951	
10.7782	 -5.364390	
10.8115	 -5.382172	
10.8448	 -5.401611	
10.878	 -5.367106	
10.9113	 -5.298691	
10.9446	 -5.382558	
10.9778	 -5.302664	
11.0111	 -5.310059	
11.0444	 -5.340576	
11.0776	 -5.355835	
11.1109	 -5.355835	
11.1442	 -5.355835	
11.1774	 -5.398494	
11.2107	 -5.361876	
11.244	 -5.386353	
11.2772	 -5.419697	
11.3105	 -5.398880	
11.3437	 -5.429495	
11.377	 -5.457572	
11.4103	 -5.429688	
11.4435	 -5.427441	
11.4768	 -5.462646	
11.5101	 -5.399461	
11.5433	 -5.420978	
11.5766	 -5.432129	
11.6099	 -5.416870	
11.6431	 -5.432129	
11.6764	 -5.447388	
11.7097	 -5.401611	
11.7429	 -5.433603	
11.7762	 -5.461269	
11.8095	 -5.429568	
11.8427	 -5.433312	
11.876	 -5.447388	
11.9093	 -5.417861	
